<mxfile host="app.diagrams.net" modified="2023-11-04T09:10:20.798Z" agent="Mozilla/5.0 (Macintosh; Intel Mac OS X 10_15_7) AppleWebKit/537.36 (KHTML, like Gecko) Chrome/118.0.0.0 Safari/537.36" version="22.0.8" etag="z9oLeWJ2GTthpFkCAP_M" type="github">
  <diagram name="第 1 页" id="XBo7DJUf6ofhJw8YZqMB">
    <mxGraphModel>
      <root>
        <mxCell id="0" />
        <mxCell id="1" parent="0" />
      </root>
    </mxGraphModel>
  </diagram>
</mxfile>
